<?xml version="1.0" encoding="UTF-8"?>
<!--Generator: Apple Native CoreSVG 123-->
<!DOCTYPE svg
PUBLIC "-//W3C//DTD SVG 1.1//EN"
       "http://www.w3.org/Graphics/SVG/1.1/DTD/svg11.dtd">
<svg version="1.1" xmlns="http://www.w3.org/2000/svg" xmlns:xlink="http://www.w3.org/1999/xlink" width="3300" height="2200">
 <!--glyph: "uni1001A8.medium", point size: 100.000000, font version: "Version 15.0d7e11", template writer version: "5"-->
 <g id="Notes">
  <rect height="2200" id="artboard" style="fill:white;opacity:1" width="3300" x="0" y="0"/>
  <line id="" style="fill:none;stroke:black;opacity:1;stroke-width:0.5;" x1="263" x2="3036" y1="292" y2="292"/>
  <text style="stroke:none;fill:black;font-family:-apple-system,&quot;SF Pro Display&quot;,&quot;SF Pro Text&quot;,Helvetica,sans-serif;font-weight:bold;" transform="matrix(1 0 0 1 263 322)">Weight/Scale Variations</text>
  <text style="stroke:none;fill:black;font-family:-apple-system,&quot;SF Pro Display&quot;,&quot;SF Pro Text&quot;,Helvetica,sans-serif;text-anchor:middle;" transform="matrix(1 0 0 1 559.711 322)">Ultralight</text>
  <text style="stroke:none;fill:black;font-family:-apple-system,&quot;SF Pro Display&quot;,&quot;SF Pro Text&quot;,Helvetica,sans-serif;text-anchor:middle;" transform="matrix(1 0 0 1 856.422 322)">Thin</text>
  <text style="stroke:none;fill:black;font-family:-apple-system,&quot;SF Pro Display&quot;,&quot;SF Pro Text&quot;,Helvetica,sans-serif;text-anchor:middle;" transform="matrix(1 0 0 1 1153.13 322)">Light</text>
  <text style="stroke:none;fill:black;font-family:-apple-system,&quot;SF Pro Display&quot;,&quot;SF Pro Text&quot;,Helvetica,sans-serif;text-anchor:middle;" transform="matrix(1 0 0 1 1449.84 322)">Regular</text>
  <text style="stroke:none;fill:black;font-family:-apple-system,&quot;SF Pro Display&quot;,&quot;SF Pro Text&quot;,Helvetica,sans-serif;text-anchor:middle;" transform="matrix(1 0 0 1 1746.56 322)">Medium</text>
  <text style="stroke:none;fill:black;font-family:-apple-system,&quot;SF Pro Display&quot;,&quot;SF Pro Text&quot;,Helvetica,sans-serif;text-anchor:middle;" transform="matrix(1 0 0 1 2043.27 322)">Semibold</text>
  <text style="stroke:none;fill:black;font-family:-apple-system,&quot;SF Pro Display&quot;,&quot;SF Pro Text&quot;,Helvetica,sans-serif;text-anchor:middle;" transform="matrix(1 0 0 1 2339.98 322)">Bold</text>
  <text style="stroke:none;fill:black;font-family:-apple-system,&quot;SF Pro Display&quot;,&quot;SF Pro Text&quot;,Helvetica,sans-serif;text-anchor:middle;" transform="matrix(1 0 0 1 2636.69 322)">Heavy</text>
  <text style="stroke:none;fill:black;font-family:-apple-system,&quot;SF Pro Display&quot;,&quot;SF Pro Text&quot;,Helvetica,sans-serif;text-anchor:middle;" transform="matrix(1 0 0 1 2933.4 322)">Black</text>
  <line id="" style="fill:none;stroke:black;opacity:1;stroke-width:0.5;" x1="263" x2="3036" y1="1903" y2="1903"/>
  <g id="" transform="matrix(1 0 0 1 263 1933)">
   <path d="M 9.24805 0.830078 C 13.5547 0.830078 17.1387 -2.74414 17.1387 -7.05078 C 17.1387 -11.3574 13.5449 -14.9316 9.23828 -14.9316 C 4.94141 -14.9316 1.36719 -11.3574 1.36719 -7.05078 C 1.36719 -2.74414 4.95117 0.830078 9.24805 0.830078 Z M 9.24805 -0.654297 C 5.70312 -0.654297 2.87109 -3.49609 2.87109 -7.05078 C 2.87109 -10.6055 5.69336 -13.4473 9.23828 -13.4473 C 12.793 -13.4473 15.6348 -10.6055 15.6445 -7.05078 C 15.6543 -3.49609 12.8027 -0.654297 9.24805 -0.654297 Z M 9.22852 -3.42773 C 9.69727 -3.42773 9.9707 -3.74023 9.9707 -4.25781 L 9.9707 -6.31836 L 12.1973 -6.31836 C 12.6953 -6.31836 13.0371 -6.57227 13.0371 -7.04102 C 13.0371 -7.51953 12.7148 -7.7832 12.1973 -7.7832 L 9.9707 -7.7832 L 9.9707 -10.0098 C 9.9707 -10.5273 9.69727 -10.8496 9.22852 -10.8496 C 8.75977 -10.8496 8.50586 -10.5078 8.50586 -10.0098 L 8.50586 -7.7832 L 6.29883 -7.7832 C 5.78125 -7.7832 5.44922 -7.51953 5.44922 -7.04102 C 5.44922 -6.57227 5.80078 -6.31836 6.29883 -6.31836 L 8.50586 -6.31836 L 8.50586 -4.25781 C 8.50586 -3.75977 8.75977 -3.42773 9.22852 -3.42773 Z"/>
  </g>
  <g id="" transform="matrix(1 0 0 1 281.506 1933)">
   <path d="M 11.709 2.91016 C 17.1582 2.91016 21.6699 -1.60156 21.6699 -7.05078 C 21.6699 -12.4902 17.1484 -17.0117 11.6992 -17.0117 C 6.25977 -17.0117 1.74805 -12.4902 1.74805 -7.05078 C 1.74805 -1.60156 6.26953 2.91016 11.709 2.91016 Z M 11.709 1.25 C 7.09961 1.25 3.41797 -2.44141 3.41797 -7.05078 C 3.41797 -11.6504 7.08984 -15.3516 11.6992 -15.3516 C 16.3086 -15.3516 20 -11.6504 20.0098 -7.05078 C 20.0195 -2.44141 16.3184 1.25 11.709 1.25 Z M 11.6895 -2.41211 C 12.207 -2.41211 12.5195 -2.77344 12.5195 -3.33984 L 12.5195 -6.23047 L 15.5762 -6.23047 C 16.123 -6.23047 16.5039 -6.51367 16.5039 -7.03125 C 16.5039 -7.55859 16.1426 -7.86133 15.5762 -7.86133 L 12.5195 -7.86133 L 12.5195 -10.9277 C 12.5195 -11.5039 12.207 -11.8555 11.6895 -11.8555 C 11.1719 -11.8555 10.8789 -11.4844 10.8789 -10.9277 L 10.8789 -7.86133 L 7.83203 -7.86133 C 7.26562 -7.86133 6.89453 -7.55859 6.89453 -7.03125 C 6.89453 -6.51367 7.28516 -6.23047 7.83203 -6.23047 L 10.8789 -6.23047 L 10.8789 -3.33984 C 10.8789 -2.79297 11.1719 -2.41211 11.6895 -2.41211 Z"/>
  </g>
  <g id="" transform="matrix(1 0 0 1 304.924 1933)">
   <path d="M 14.9707 5.67383 C 21.9336 5.67383 27.6953 -0.078125 27.6953 -7.04102 C 27.6953 -14.0039 21.9238 -19.7559 14.9609 -19.7559 C 8.00781 -19.7559 2.25586 -14.0039 2.25586 -7.04102 C 2.25586 -0.078125 8.01758 5.67383 14.9707 5.67383 Z M 14.9707 3.85742 C 8.93555 3.85742 4.08203 -1.00586 4.08203 -7.04102 C 4.08203 -13.0762 8.92578 -17.9395 14.9609 -17.9395 C 21.0059 -17.9395 25.8594 -13.0762 25.8691 -7.04102 C 25.8789 -1.00586 21.0156 3.85742 14.9707 3.85742 Z M 14.9512 -1.06445 C 15.5176 -1.06445 15.8691 -1.45508 15.8691 -2.06055 L 15.8691 -6.13281 L 20.1074 -6.13281 C 20.6934 -6.13281 21.1133 -6.46484 21.1133 -7.02148 C 21.1133 -7.59766 20.7227 -7.93945 20.1074 -7.93945 L 15.8691 -7.93945 L 15.8691 -12.1875 C 15.8691 -12.8027 15.5176 -13.1934 14.9512 -13.1934 C 14.3848 -13.1934 14.0625 -12.7832 14.0625 -12.1875 L 14.0625 -7.93945 L 9.83398 -7.93945 C 9.21875 -7.93945 8.80859 -7.59766 8.80859 -7.02148 C 8.80859 -6.46484 9.23828 -6.13281 9.83398 -6.13281 L 14.0625 -6.13281 L 14.0625 -2.06055 C 14.0625 -1.47461 14.3848 -1.06445 14.9512 -1.06445 Z"/>
  </g>
  <text style="stroke:none;fill:black;font-family:-apple-system,&quot;SF Pro Display&quot;,&quot;SF Pro Text&quot;,Helvetica,sans-serif;font-weight:bold;" transform="matrix(1 0 0 1 263 1953)">Design Variations</text>
  <text style="stroke:none;fill:black;font-family:-apple-system,&quot;SF Pro Display&quot;,&quot;SF Pro Text&quot;,Helvetica,sans-serif;" transform="matrix(1 0 0 1 263 1971)">Symbols are supported in up to nine weights and three scales.</text>
  <text style="stroke:none;fill:black;font-family:-apple-system,&quot;SF Pro Display&quot;,&quot;SF Pro Text&quot;,Helvetica,sans-serif;" transform="matrix(1 0 0 1 263 1989)">For optimal layout with text and other symbols, vertically align</text>
  <text style="stroke:none;fill:black;font-family:-apple-system,&quot;SF Pro Display&quot;,&quot;SF Pro Text&quot;,Helvetica,sans-serif;" transform="matrix(1 0 0 1 263 2007)">symbols with the adjacent text.</text>
  <rect height="14" id="" style="fill:#00AEEF;stroke:none;opacity:0.4;" width="3" x="776" y="1919"/>
  <g id="" transform="matrix(1 0 0 1 779 1933)">
   <path d="M 10.5273 0 L 12.373 0 L 7.17773 -14.0918 L 5.43945 -14.0918 L 0.244141 0 L 2.08984 0 L 3.50586 -4.0332 L 9.11133 -4.0332 Z M 6.2793 -11.9531 L 6.33789 -11.9531 L 8.59375 -5.52734 L 4.02344 -5.52734 Z"/>
  </g>
  <rect height="14" id="" style="fill:#00AEEF;stroke:none;opacity:0.4;" width="3" x="791.617" y="1919"/>
  <text style="stroke:none;fill:black;font-family:-apple-system,&quot;SF Pro Display&quot;,&quot;SF Pro Text&quot;,Helvetica,sans-serif;font-weight:bold;" transform="matrix(1 0 0 1 776 1953)">Margins</text>
  <text style="stroke:none;fill:black;font-family:-apple-system,&quot;SF Pro Display&quot;,&quot;SF Pro Text&quot;,Helvetica,sans-serif;" transform="matrix(1 0 0 1 776 1971)">Leading and trailing margins on the left and right side of each symbol</text>
  <text style="stroke:none;fill:black;font-family:-apple-system,&quot;SF Pro Display&quot;,&quot;SF Pro Text&quot;,Helvetica,sans-serif;" transform="matrix(1 0 0 1 776 1989)">can be adjusted by modifying the width of the blue rectangles.</text>
  <text style="stroke:none;fill:black;font-family:-apple-system,&quot;SF Pro Display&quot;,&quot;SF Pro Text&quot;,Helvetica,sans-serif;" transform="matrix(1 0 0 1 776 2007)">Modifications are automatically applied proportionally to all</text>
  <text style="stroke:none;fill:black;font-family:-apple-system,&quot;SF Pro Display&quot;,&quot;SF Pro Text&quot;,Helvetica,sans-serif;" transform="matrix(1 0 0 1 776 2025)">scales and weights.</text>
  <g id="" transform="matrix(1 0 0 1 1289 1933)">
   <path d="M 2.83203 3.11523 L 4.375 4.6582 C 5.22461 5.48828 6.19141 5.41992 7.06055 4.46289 L 17.2754 -6.66016 C 17.7051 -6.36719 18.0957 -6.37695 18.5645 -6.47461 L 19.6094 -6.68945 L 20.3027 -5.99609 L 20.2539 -5.47852 C 20.1855 -4.95117 20.3516 -4.53125 20.8496 -4.0332 L 21.6602 -3.22266 C 22.168 -2.71484 22.8223 -2.68555 23.3008 -3.16406 L 26.5527 -6.41602 C 27.0312 -6.89453 27.0117 -7.54883 26.5039 -8.05664 L 25.6836 -8.87695 C 25.1855 -9.375 24.7754 -9.55078 24.2383 -9.47266 L 23.7109 -9.41406 L 23.0566 -10.0781 L 23.3398 -11.2207 C 23.4863 -11.7871 23.3398 -12.2559 22.7148 -12.8613 L 20.3027 -15.2539 C 16.7578 -18.7793 12.2266 -18.6719 9.11133 -15.5371 C 8.69141 -15.1074 8.64258 -14.5215 8.91602 -14.0918 C 9.15039 -13.7207 9.62891 -13.4961 10.2734 -13.6621 C 11.7871 -14.043 13.3008 -13.9258 14.7852 -12.9199 L 14.1602 -11.3379 C 13.9258 -10.752 13.9453 -10.2734 14.1797 -9.83398 L 3.01758 0.439453 C 2.08008 1.30859 1.97266 2.25586 2.83203 3.11523 Z M 10.6738 -15.1465 C 13.3398 -17.1387 16.6504 -16.8262 19.0527 -14.4141 L 21.6797 -11.8066 C 21.9141 -11.5723 21.9434 -11.3867 21.8848 -11.0938 L 21.5039 -9.53125 L 23.0762 -7.95898 L 24.043 -8.04688 C 24.3262 -8.07617 24.4141 -8.05664 24.6387 -7.83203 L 25.2637 -7.20703 L 22.5098 -4.46289 L 21.8848 -5.07812 C 21.6602 -5.30273 21.6406 -5.40039 21.6699 -5.68359 L 21.7578 -6.64062 L 20.1953 -8.20312 L 18.5742 -7.89062 C 18.291 -7.83203 18.1445 -7.83203 17.9102 -8.07617 L 15.7324 -10.2539 C 15.5078 -10.4883 15.4785 -10.625 15.6055 -10.9473 L 16.5527 -13.2227 C 14.9512 -14.7559 12.8418 -15.6055 10.8008 -14.9512 C 10.7129 -14.9219 10.6445 -14.9414 10.6152 -14.9805 C 10.5859 -15.0293 10.5859 -15.0781 10.6738 -15.1465 Z M 4.10156 2.41211 C 3.61328 1.91406 3.78906 1.61133 4.12109 1.30859 L 15.0781 -8.80859 L 16.3086 -7.57812 L 6.15234 3.34961 C 5.84961 3.68164 5.46875 3.7793 5.06836 3.37891 Z"/>
  </g>
  <text style="stroke:none;fill:black;font-family:-apple-system,&quot;SF Pro Display&quot;,&quot;SF Pro Text&quot;,Helvetica,sans-serif;font-weight:bold;" transform="matrix(1 0 0 1 1289 1953)">Exporting</text>
  <text style="stroke:none;fill:black;font-family:-apple-system,&quot;SF Pro Display&quot;,&quot;SF Pro Text&quot;,Helvetica,sans-serif;" transform="matrix(1 0 0 1 1289 1971)">Symbols should be outlined when exporting to ensure the</text>
  <text style="stroke:none;fill:black;font-family:-apple-system,&quot;SF Pro Display&quot;,&quot;SF Pro Text&quot;,Helvetica,sans-serif;" transform="matrix(1 0 0 1 1289 1989)">design is preserved when submitting to Xcode.</text>
  <text id="template-version" style="stroke:none;fill:black;font-family:-apple-system,&quot;SF Pro Display&quot;,&quot;SF Pro Text&quot;,Helvetica,sans-serif;text-anchor:end;" transform="matrix(1 0 0 1 3036 1933)">Template v.1.0</text>
  <text style="stroke:none;fill:black;font-family:-apple-system,&quot;SF Pro Display&quot;,&quot;SF Pro Text&quot;,Helvetica,sans-serif;text-anchor:end;" transform="matrix(1 0 0 1 3036 1951)">Generated from power</text>
  <text style="stroke:none;fill:black;font-family:-apple-system,&quot;SF Pro Display&quot;,&quot;SF Pro Text&quot;,Helvetica,sans-serif;text-anchor:end;" transform="matrix(1 0 0 1 3036 1969)">Typeset at 100 points</text>
  <text style="stroke:none;fill:black;font-family:-apple-system,&quot;SF Pro Display&quot;,&quot;SF Pro Text&quot;,Helvetica,sans-serif;" transform="matrix(1 0 0 1 263 726)">Small</text>
  <text style="stroke:none;fill:black;font-family:-apple-system,&quot;SF Pro Display&quot;,&quot;SF Pro Text&quot;,Helvetica,sans-serif;" transform="matrix(1 0 0 1 263 1156)">Medium</text>
  <text style="stroke:none;fill:black;font-family:-apple-system,&quot;SF Pro Display&quot;,&quot;SF Pro Text&quot;,Helvetica,sans-serif;" transform="matrix(1 0 0 1 263 1586)">Large</text>
 </g>
 <g id="Guides">
  <g id="H-reference" style="fill:#27AAE1;stroke:none;" transform="matrix(1 0 0 1 339 696)">
   <path d="M 54.9316 0 L 57.666 0 L 30.5664 -70.459 L 28.0762 -70.459 L 0.976562 0 L 3.66211 0 L 12.9395 -24.4629 L 45.7031 -24.4629 Z M 29.1992 -67.0898 L 29.4434 -67.0898 L 44.8242 -26.709 L 13.8184 -26.709 Z"/>
  </g>
  <line id="Baseline-S" style="fill:none;stroke:#27AAE1;opacity:1;stroke-width:0.577;" x1="263" x2="3036" y1="696" y2="696"/>
  <line id="Capline-S" style="fill:none;stroke:#27AAE1;opacity:1;stroke-width:0.577;" x1="263" x2="3036" y1="625.541" y2="625.541"/>
  <g id="H-reference" style="fill:#27AAE1;stroke:none;" transform="matrix(1 0 0 1 339 1126)">
   <path d="M 54.9316 0 L 57.666 0 L 30.5664 -70.459 L 28.0762 -70.459 L 0.976562 0 L 3.66211 0 L 12.9395 -24.4629 L 45.7031 -24.4629 Z M 29.1992 -67.0898 L 29.4434 -67.0898 L 44.8242 -26.709 L 13.8184 -26.709 Z"/>
  </g>
  <line id="Baseline-M" style="fill:none;stroke:#27AAE1;opacity:1;stroke-width:0.577;" x1="263" x2="3036" y1="1126" y2="1126"/>
  <line id="Capline-M" style="fill:none;stroke:#27AAE1;opacity:1;stroke-width:0.577;" x1="263" x2="3036" y1="1055.54" y2="1055.54"/>
  <g id="H-reference" style="fill:#27AAE1;stroke:none;" transform="matrix(1 0 0 1 339 1556)">
   <path d="M 54.9316 0 L 57.666 0 L 30.5664 -70.459 L 28.0762 -70.459 L 0.976562 0 L 3.66211 0 L 12.9395 -24.4629 L 45.7031 -24.4629 Z M 29.1992 -67.0898 L 29.4434 -67.0898 L 44.8242 -26.709 L 13.8184 -26.709 Z"/>
  </g>
  <line id="Baseline-L" style="fill:none;stroke:#27AAE1;opacity:1;stroke-width:0.577;" x1="263" x2="3036" y1="1556" y2="1556"/>
  <line id="Capline-L" style="fill:none;stroke:#27AAE1;opacity:1;stroke-width:0.577;" x1="263" x2="3036" y1="1485.54" y2="1485.54"/>
  <rect height="119.336" id="left-margin" style="fill:#00AEEF;stroke:none;opacity:0.4;" width="8.74023" x="1392.57" y="1030.79"/>
  <rect height="119.336" id="right-margin" style="fill:#00AEEF;stroke:none;opacity:0.4;" width="8.74023" x="1498.38" y="1030.79"/>
 </g>
 <g id="Symbols">
  <g id="Black-L" transform="matrix(1 0 0 1 2854.52 1556)">
   <path d="M 78.8574 -32.2754 C 85.6445 -32.2754 90.0879 -37.0117 90.0879 -44.1895 L 90.0879 -95.6055 C 90.0879 -102.783 85.6445 -107.52 78.8574 -107.52 C 72.1191 -107.52 67.627 -102.783 67.627 -95.6055 L 67.627 -44.1895 C 67.627 -37.0117 72.1191 -32.2754 78.8574 -32.2754 Z M 78.8574 32.373 C 116.016 32.373 146.484 1.95312 146.484 -35.2051 C 146.484 -53.2227 139.307 -69.6289 128.271 -81.0059 C 118.457 -91.4062 102.637 -79.248 113.33 -67.4316 C 121.191 -59.082 126.025 -47.7051 126.025 -35.2051 C 126.025 -9.13086 104.98 11.9629 78.8574 11.9629 C 52.7832 11.9629 31.7383 -9.13086 31.7383 -35.2051 C 31.7383 -47.7051 36.5723 -59.0332 44.4336 -67.4316 C 55.127 -79.248 39.3066 -91.4062 29.4922 -81.0059 C 18.457 -69.6289 11.2793 -53.2227 11.2793 -35.2051 C 11.2793 1.95312 41.748 32.373 78.8574 32.373 Z"/>
  </g>
  <g id="Heavy-L" transform="matrix(1 0 0 1 2559.13 1556)">
   <path d="M 77.5391 -33.2031 C 83.3496 -33.2031 87.1582 -37.2559 87.1582 -43.3594 L 87.1582 -96.1426 C 87.1582 -102.295 83.3496 -106.348 77.5391 -106.348 C 71.7773 -106.348 67.9688 -102.295 67.9688 -96.1426 L 67.9688 -43.3594 C 67.9688 -37.2559 71.7773 -33.2031 77.5391 -33.2031 Z M 77.5391 31.0547 C 113.916 31.0547 143.848 1.17188 143.848 -35.2051 C 143.848 -53.3691 136.377 -69.873 124.805 -81.25 C 116.26 -90.1367 102.637 -79.3457 112.012 -69.2871 C 120.703 -60.6445 126.074 -48.5352 126.074 -35.2051 C 126.074 -8.34961 104.395 13.2812 77.5391 13.2812 C 50.6836 13.2812 29.0527 -8.34961 29.0527 -35.2051 C 29.0527 -48.5352 34.4238 -60.5957 43.1152 -69.2871 C 52.4414 -79.3457 38.8672 -90.1367 30.3223 -81.25 C 18.75 -69.873 11.2793 -53.3691 11.2793 -35.2051 C 11.2793 1.17188 41.1621 31.0547 77.5391 31.0547 Z"/>
  </g>
  <g id="Bold-L" transform="matrix(1 0 0 1 2263.9 1556)">
   <path d="M 76.0742 -34.1797 C 80.7617 -34.1797 83.8379 -37.5 83.8379 -42.3828 L 83.8379 -96.8262 C 83.8379 -101.758 80.7617 -105.078 76.0742 -105.078 C 71.3867 -105.078 68.3105 -101.758 68.3105 -96.8262 L 68.3105 -42.3828 C 68.3105 -37.5 71.3867 -34.1797 76.0742 -34.1797 Z M 76.0742 29.541 C 111.621 29.541 140.869 0.292969 140.869 -35.2051 C 140.869 -53.5156 133.057 -70.166 120.898 -81.543 C 113.77 -88.7207 102.686 -79.4922 110.547 -71.3379 C 120.117 -62.4023 126.074 -49.5117 126.074 -35.2051 C 126.074 -7.51953 103.76 14.7949 76.0742 14.7949 C 48.3887 14.7949 26.0742 -7.51953 26.0742 -35.2051 C 26.0742 -49.5117 32.0801 -62.3535 41.6016 -71.3379 C 49.4629 -79.4922 38.3789 -88.7207 31.25 -81.543 C 19.0918 -70.166 11.2793 -53.5156 11.2793 -35.2051 C 11.2793 0.292969 40.5273 29.541 76.0742 29.541 Z"/>
  </g>
  <g id="Semibold-L" transform="matrix(1 0 0 1 1968.22 1556)">
   <path d="M 75.0488 -34.8633 C 78.9551 -34.8633 81.5918 -37.6465 81.5918 -41.748 L 81.5918 -97.2656 C 81.5918 -101.416 78.9551 -104.15 75.0488 -104.15 C 71.1426 -104.15 68.5547 -101.416 68.5547 -97.2656 L 68.5547 -41.748 C 68.5547 -37.6465 71.1426 -34.8633 75.0488 -34.8633 Z M 75.0488 28.5156 C 110.01 28.5156 138.818 -0.292969 138.818 -35.2051 C 138.818 -53.6621 130.811 -70.3613 118.213 -81.7383 C 112.061 -87.7441 102.686 -79.5898 109.521 -72.7539 C 119.727 -63.623 126.074 -50.1465 126.074 -35.2051 C 126.074 -6.93359 103.32 15.8203 75.0488 15.8203 C 46.7773 15.8203 24.0234 -6.93359 24.0234 -35.2051 C 24.0234 -50.1465 30.4199 -63.5742 40.5762 -72.7539 C 47.4121 -79.5898 38.0859 -87.7441 31.8848 -81.7383 C 19.3359 -70.3613 11.2793 -53.6621 11.2793 -35.2051 C 11.2793 -0.292969 40.1367 28.5156 75.0488 28.5156 Z"/>
  </g>
  <g id="Medium-L" transform="matrix(1 0 0 1 1672.26 1556)">
   <path d="M 74.2676 -35.4004 C 77.5879 -35.4004 79.834 -37.793 79.834 -41.2598 L 79.834 -97.6074 C 79.834 -101.123 77.5879 -103.516 74.2676 -103.516 C 70.9473 -103.516 68.7012 -101.123 68.7012 -97.6074 L 68.7012 -41.2598 C 68.7012 -37.793 70.9473 -35.4004 74.2676 -35.4004 Z M 74.2676 27.7344 C 108.789 27.7344 137.305 -0.732422 137.305 -35.2051 C 137.305 -53.7109 129.053 -70.5566 116.211 -81.8848 C 110.742 -87.0117 102.686 -79.6387 108.789 -73.8281 C 119.385 -64.5508 126.074 -50.6348 126.074 -35.2051 C 126.074 -6.49414 102.979 16.6016 74.2676 16.6016 C 45.6055 16.6016 22.4609 -6.49414 22.4609 -35.2051 C 22.4609 -50.6348 29.1992 -64.502 39.7949 -73.8281 C 45.8496 -79.6387 37.793 -87.0117 32.373 -81.8848 C 19.5312 -70.5078 11.2793 -53.7109 11.2793 -35.2051 C 11.2793 -0.732422 39.7949 27.7344 74.2676 27.7344 Z"/>
  </g>
  <g id="Regular-L" transform="matrix(1 0 0 1 1376.58 1556)">
   <path d="M 73.291 -36.084 C 75.8301 -36.084 77.5879 -37.9395 77.5879 -40.5762 L 77.5879 -98.0469 C 77.5879 -100.732 75.8301 -102.637 73.291 -102.637 C 70.7031 -102.637 68.9453 -100.732 68.9453 -98.0469 L 68.9453 -40.5762 C 68.9453 -37.9395 70.7031 -36.084 73.291 -36.084 Z M 73.291 26.7578 C 107.178 26.7578 135.254 -1.31836 135.254 -35.2051 C 135.254 -53.8574 126.807 -70.752 113.574 -82.0801 C 109.033 -86.0352 102.734 -79.7363 107.764 -75.2441 C 118.994 -65.7715 126.123 -51.2695 126.123 -35.2051 C 126.123 -5.95703 102.539 17.627 73.291 17.627 C 43.9941 17.627 20.459 -5.95703 20.459 -35.2051 C 20.459 -51.2695 27.5879 -65.6738 38.7695 -75.2441 C 43.8477 -79.7363 37.5 -86.0352 33.0078 -82.0801 C 19.7266 -70.7031 11.2793 -53.8574 11.2793 -35.2051 C 11.2793 -1.31836 39.3555 26.7578 73.291 26.7578 Z"/>
  </g>
  <g id="Light-L" transform="matrix(1 0 0 1 1080.72 1556)">
   <path d="M 72.4121 -36.3281 C 74.3164 -36.3281 75.7324 -37.7441 75.7324 -39.7461 L 75.7324 -98.3398 C 75.7324 -100.391 74.3164 -101.807 72.4121 -101.807 C 70.459 -101.807 69.0918 -100.391 69.0918 -98.3398 L 69.0918 -39.7461 C 69.0918 -37.7441 70.459 -36.3281 72.4121 -36.3281 Z M 72.4121 25.9277 C 105.908 25.9277 133.545 -1.66016 133.545 -35.1562 C 133.545 -53.8574 125 -70.752 111.572 -81.8848 C 108.057 -84.9609 103.271 -79.9805 107.129 -76.6602 C 118.994 -66.9434 126.514 -51.9043 126.514 -35.1562 C 126.514 -5.22461 102.344 18.9453 72.4121 18.9453 C 42.4805 18.9453 18.2617 -5.22461 18.2617 -35.1562 C 18.2617 -51.9043 25.8789 -66.8945 37.6465 -76.6602 C 41.5039 -79.9805 36.7676 -84.9609 33.252 -81.8848 C 19.873 -70.7031 11.2793 -53.8574 11.2793 -35.1562 C 11.2793 -1.66016 38.916 25.9277 72.4121 25.9277 Z"/>
  </g>
  <g id="Thin-L" transform="matrix(1 0 0 1 785.158 1556)">
   <path d="M 71.2402 -36.6211 C 72.3633 -36.6211 73.2422 -37.5 73.2422 -38.623 L 73.2422 -98.7793 C 73.2422 -99.9023 72.3633 -100.781 71.2402 -100.781 C 70.166 -100.781 69.2871 -99.9023 69.2871 -98.7793 L 69.2871 -38.623 C 69.2871 -37.5 70.166 -36.6211 71.2402 -36.6211 Z M 71.2402 24.8535 C 104.199 24.8535 131.25 -2.14844 131.25 -35.1074 C 131.25 -53.8574 122.559 -70.752 108.936 -81.6406 C 106.689 -83.4961 104.053 -80.3711 106.299 -78.5156 C 118.945 -68.5547 127.1 -52.7344 127.1 -35.1074 C 127.1 -4.29688 102.051 20.7031 71.2402 20.7031 C 40.4297 20.7031 15.4297 -4.29688 15.4297 -35.1074 C 15.4297 -52.7344 23.6328 -68.457 36.1816 -78.5156 C 38.4766 -80.3711 35.8398 -83.4961 33.5449 -81.6406 C 20.0195 -70.6543 11.2793 -53.8574 11.2793 -35.1074 C 11.2793 -2.14844 38.2812 24.8535 71.2402 24.8535 Z"/>
  </g>
  <g id="Ultralight-L" transform="matrix(1 0 0 1 489.032 1556)">
   <path d="M 70.6543 -36.8164 C 71.3379 -36.8164 71.9238 -37.4023 71.9238 -38.0371 L 71.9238 -98.9746 C 71.9238 -99.6582 71.3379 -100.244 70.6543 -100.244 C 69.9707 -100.244 69.3848 -99.6582 69.3848 -98.9746 L 69.3848 -38.0371 C 69.3848 -37.4023 69.9707 -36.8164 70.6543 -36.8164 Z M 70.6543 24.3164 C 103.369 24.3164 130.078 -2.44141 130.078 -35.1074 C 130.078 -53.8574 121.338 -70.752 107.617 -81.543 C 106.006 -82.7637 104.443 -80.5664 105.908 -79.4922 C 118.945 -69.3359 127.393 -53.1738 127.393 -35.1074 C 127.393 -3.85742 101.904 21.6309 70.6543 21.6309 C 39.4043 21.6309 13.9648 -3.85742 13.9648 -35.1074 C 13.9648 -53.1738 22.4609 -69.2871 35.4492 -79.4922 C 36.9141 -80.5664 35.3516 -82.7637 33.6914 -81.543 C 20.0684 -70.6543 11.2793 -53.8574 11.2793 -35.1074 C 11.2793 -2.44141 37.9883 24.3164 70.6543 24.3164 Z"/>
  </g>
  <g id="Black-M" transform="matrix(1 0 0 1 2870.95 1126)">
   <path d="M 62.4512 -31.8848 C 68.7012 -31.8848 72.8027 -36.2305 72.8027 -42.8711 L 72.8027 -81.3965 C 72.8027 -88.0371 68.7012 -92.3828 62.4512 -92.3828 C 56.2012 -92.3828 52.0996 -88.0371 52.0996 -81.3965 L 52.0996 -42.8711 C 52.0996 -36.2305 56.2012 -31.8848 62.4512 -31.8848 Z M 62.4512 18.5059 C 92.041 18.5059 116.162 -5.56641 116.162 -35.2051 C 116.162 -48.9746 110.938 -61.5234 103.027 -70.2637 C 94.2871 -79.9316 79.834 -69.3359 89.2578 -58.4473 C 94.6289 -52.1973 97.9004 -44.0918 97.9004 -35.2051 C 97.9004 -15.625 82.0312 0.244141 62.4512 0.244141 C 42.8711 0.244141 27.002 -15.625 27.002 -35.2051 C 27.002 -44.0918 30.2734 -52.1973 35.6445 -58.4473 C 45.0684 -69.3359 30.6152 -79.9316 21.875 -70.2637 C 13.9648 -61.5234 8.74023 -48.9746 8.74023 -35.2051 C 8.74023 -5.56641 32.8613 18.5059 62.4512 18.5059 Z"/>
  </g>
  <g id="Heavy-M" transform="matrix(1 0 0 1 2575.46 1126)">
   <path d="M 61.2305 -32.7637 C 66.5527 -32.7637 70.0684 -36.5234 70.0684 -42.1387 L 70.0684 -81.9336 C 70.0684 -87.5977 66.5527 -91.3086 61.2305 -91.3086 C 55.9082 -91.3086 52.3926 -87.5977 52.3926 -81.9336 L 52.3926 -42.1387 C 52.3926 -36.5234 55.9082 -32.7637 61.2305 -32.7637 Z M 61.2305 17.2852 C 90.0879 17.2852 113.721 -6.34766 113.721 -35.2051 C 113.721 -49.1211 108.203 -61.8164 99.7559 -70.5566 C 92.0898 -78.8086 79.6875 -69.3848 87.9883 -60.1074 C 94.043 -53.6133 97.8027 -44.873 97.8027 -35.2051 C 97.8027 -14.9902 81.4453 1.36719 61.2305 1.36719 C 41.0156 1.36719 24.6582 -14.9902 24.6582 -35.2051 C 24.6582 -44.873 28.418 -53.6133 34.4727 -60.1074 C 42.7734 -69.3848 30.3711 -78.8086 22.7051 -70.5566 C 14.2578 -61.8164 8.74023 -49.1211 8.74023 -35.2051 C 8.74023 -6.34766 32.373 17.2852 61.2305 17.2852 Z"/>
  </g>
  <g id="Bold-M" transform="matrix(1 0 0 1 2280.11 1126)">
   <path d="M 59.8633 -33.7891 C 64.1602 -33.7891 66.9922 -36.8164 66.9922 -41.3574 L 66.9922 -82.5684 C 66.9922 -87.1094 64.1602 -90.1367 59.8633 -90.1367 C 55.5664 -90.1367 52.7344 -87.1094 52.7344 -82.5684 L 52.7344 -41.3574 C 52.7344 -36.8164 55.5664 -33.7891 59.8633 -33.7891 Z M 59.8633 15.8691 C 87.9395 15.8691 110.986 -7.17773 110.986 -35.2051 C 110.986 -49.3164 105.127 -62.1582 96.0938 -70.9473 C 89.6973 -77.5879 79.541 -69.4336 86.5723 -61.9629 C 93.4082 -55.2246 97.7051 -45.7031 97.7051 -35.2051 C 97.7051 -14.2578 80.8105 2.58789 59.8633 2.58789 C 38.916 2.58789 22.0215 -14.2578 22.0215 -35.2051 C 22.0215 -45.7031 26.3184 -55.1758 33.1543 -61.9629 C 40.1855 -69.4336 30.0293 -77.5879 23.6328 -70.9473 C 14.5996 -62.1094 8.74023 -49.3164 8.74023 -35.2051 C 8.74023 -7.17773 31.7871 15.8691 59.8633 15.8691 Z"/>
  </g>
  <g id="Semibold-M" transform="matrix(1 0 0 1 1984.36 1126)">
   <path d="M 58.9355 -34.5215 C 62.5 -34.5215 64.8926 -37.0605 64.8926 -40.8203 L 64.8926 -83.0078 C 64.8926 -86.8164 62.5 -89.3066 58.9355 -89.3066 C 55.3223 -89.3066 52.9297 -86.8164 52.9297 -83.0078 L 52.9297 -40.8203 C 52.9297 -37.0605 55.3223 -34.5215 58.9355 -34.5215 Z M 58.9355 14.9414 C 86.4258 14.9414 109.082 -7.71484 109.082 -35.2051 C 109.082 -49.4141 103.027 -62.3535 93.5547 -71.1914 C 87.9883 -76.709 79.4434 -69.4824 85.5957 -63.2324 C 93.0176 -56.2988 97.6074 -46.2891 97.6074 -35.2051 C 97.6074 -13.7695 80.3711 3.4668 58.9355 3.4668 C 37.5 3.4668 20.2148 -13.7695 20.2148 -35.2051 C 20.2148 -46.2891 24.8535 -56.25 32.2754 -63.2324 C 38.3789 -69.4824 29.834 -76.709 24.3164 -71.1914 C 14.8438 -62.3535 8.74023 -49.4141 8.74023 -35.2051 C 8.74023 -7.71484 31.4453 14.9414 58.9355 14.9414 Z"/>
  </g>
  <g id="Medium-M" transform="matrix(1 0 0 1 1688.35 1126)">
   <path d="M 58.2031 -35.0586 C 61.2793 -35.0586 63.2812 -37.207 63.2812 -40.4297 L 63.2812 -83.3008 C 63.2812 -86.5234 61.2793 -88.7207 58.2031 -88.7207 C 55.1758 -88.7207 53.125 -86.5234 53.125 -83.3008 L 53.125 -40.4297 C 53.125 -37.207 55.1758 -35.0586 58.2031 -35.0586 Z M 58.2031 14.209 C 85.2539 14.209 107.666 -8.1543 107.666 -35.2051 C 107.666 -49.5117 101.416 -62.5488 91.6504 -71.3867 C 86.7188 -76.0742 79.3945 -69.5312 84.8633 -64.209 C 92.6758 -57.1289 97.5586 -46.7285 97.5586 -35.2051 C 97.5586 -13.4277 80.0293 4.10156 58.2031 4.10156 C 36.377 4.10156 18.8477 -13.4277 18.8477 -35.2051 C 18.8477 -46.7285 23.7793 -57.0801 31.5918 -64.209 C 37.0605 -69.5312 29.6875 -76.0742 24.8047 -71.3867 C 14.9902 -62.5 8.74023 -49.5117 8.74023 -35.2051 C 8.74023 -8.1543 31.1523 14.209 58.2031 14.209 Z"/>
  </g>
  <g id="Regular-M" transform="matrix(1 0 0 1 1392.57 1126)">
   <path d="M 57.2754 -35.7422 C 59.6191 -35.7422 61.2305 -37.4512 61.2305 -39.8926 L 61.2305 -83.7402 C 61.2305 -86.2305 59.6191 -87.8906 57.2754 -87.8906 C 54.9316 -87.8906 53.3691 -86.2305 53.3691 -83.7402 L 53.3691 -39.8926 C 53.3691 -37.4512 54.9316 -35.7422 57.2754 -35.7422 Z M 57.2754 13.2324 C 83.7891 13.2324 105.811 -8.74023 105.811 -35.2539 C 105.811 -49.6582 99.3164 -62.7441 89.1113 -71.6309 C 85.1074 -75.2441 79.2969 -69.5312 83.8867 -65.4785 C 92.2363 -58.2031 97.5098 -47.3145 97.5098 -35.2539 C 97.5098 -12.9395 79.5898 4.98047 57.2754 4.98047 C 34.9609 4.98047 17.0898 -12.9395 17.0898 -35.2539 C 17.0898 -47.3145 22.3145 -58.1543 30.6641 -65.4785 C 35.3027 -69.5312 29.4434 -75.2441 25.4395 -71.6309 C 15.2344 -62.7441 8.74023 -49.6582 8.74023 -35.2539 C 8.74023 -8.74023 30.7617 13.2324 57.2754 13.2324 Z"/>
  </g>
  <g id="Light-M" transform="matrix(1 0 0 1 1096.64 1126)">
   <path d="M 56.4941 -35.9863 C 58.3008 -35.9863 59.5215 -37.2559 59.5215 -39.1113 L 59.5215 -84.0332 C 59.5215 -85.8887 58.3008 -87.207 56.4941 -87.207 C 54.7363 -87.207 53.4668 -85.8887 53.4668 -84.0332 L 53.4668 -39.1113 C 53.4668 -37.2559 54.7363 -35.9863 56.4941 -35.9863 Z M 56.4941 12.5488 C 82.6172 12.5488 104.248 -9.08203 104.248 -35.2051 C 104.248 -49.6582 97.7051 -62.7441 87.3535 -71.4844 C 84.1797 -74.2676 79.7852 -69.8242 83.3008 -66.6992 C 92.2363 -59.2773 97.8516 -47.9004 97.8516 -35.2051 C 97.8516 -12.3047 79.3945 6.15234 56.4941 6.15234 C 33.5938 6.15234 15.1367 -12.3047 15.1367 -35.2051 C 15.1367 -47.9004 20.8008 -59.2285 29.6875 -66.6992 C 33.2031 -69.8242 28.8086 -74.2676 25.6348 -71.4844 C 15.332 -62.6953 8.74023 -49.6582 8.74023 -35.2051 C 8.74023 -9.08203 30.3711 12.5488 56.4941 12.5488 Z"/>
  </g>
  <g id="Thin-M" transform="matrix(1 0 0 1 800.953 1126)">
   <path d="M 55.4688 -36.2305 C 56.4941 -36.2305 57.2754 -37.0605 57.2754 -38.0859 L 57.2754 -84.375 C 57.2754 -85.4492 56.4941 -86.2305 55.4688 -86.2305 C 54.4434 -86.2305 53.6621 -85.4492 53.6621 -84.375 L 53.6621 -38.0859 C 53.6621 -37.0605 54.4434 -36.2305 55.4688 -36.2305 Z M 55.4688 11.5723 C 81.1035 11.5723 102.197 -9.52148 102.197 -35.1562 C 102.197 -49.6582 95.5078 -62.7441 85.0098 -71.2402 C 82.959 -72.9492 80.4688 -70.1172 82.5684 -68.3594 C 92.1875 -60.6934 98.3887 -48.6328 98.3887 -35.1562 C 98.3887 -11.4746 79.1504 7.76367 55.4688 7.76367 C 31.7871 7.76367 12.5488 -11.4746 12.5488 -35.1562 C 12.5488 -48.6328 18.7988 -60.6445 28.3691 -68.3594 C 30.4688 -70.1172 27.9785 -72.9492 25.9277 -71.2402 C 15.4785 -62.6953 8.74023 -49.6582 8.74023 -35.1562 C 8.74023 -9.52148 29.834 11.5723 55.4688 11.5723 Z"/>
  </g>
  <g id="Ultralight-M" transform="matrix(1 0 0 1 504.779 1126)">
   <path d="M 54.9316 -36.377 C 55.6152 -36.377 56.1523 -36.9141 56.1523 -37.5977 L 56.1523 -84.5703 C 56.1523 -85.2051 55.6152 -85.7422 54.9316 -85.7422 C 54.2969 -85.7422 53.7598 -85.2051 53.7598 -84.5703 L 53.7598 -37.5977 C 53.7598 -36.9141 54.2969 -36.377 54.9316 -36.377 Z M 54.9316 11.084 C 80.3711 11.084 101.123 -9.7168 101.123 -35.1562 C 101.123 -49.6582 94.3848 -62.7441 83.7891 -71.1426 C 82.373 -72.2656 80.8105 -70.3125 82.1777 -69.2383 C 92.1875 -61.4258 98.6328 -49.0234 98.6328 -35.1562 C 98.6328 -11.0352 79.0527 8.54492 54.9316 8.54492 C 30.8594 8.54492 11.2305 -11.0352 11.2305 -35.1562 C 11.2305 -49.0234 17.7734 -61.377 27.6855 -69.2383 C 29.0527 -70.3125 27.5391 -72.2656 26.0742 -71.1426 C 15.5273 -62.6953 8.74023 -49.6582 8.74023 -35.1562 C 8.74023 -9.7168 29.541 11.084 54.9316 11.084 Z"/>
  </g>
  <g id="Black-S" transform="matrix(1 0 0 1 2884.57 696)">
   <path d="M 48.8281 -32.666 C 53.6621 -32.666 56.8359 -36.0352 56.8359 -41.1621 L 56.8359 -71.4355 C 56.8359 -76.5625 53.6621 -79.9316 48.8281 -79.9316 C 43.9941 -79.9316 40.8203 -76.5625 40.8203 -71.4355 L 40.8203 -41.1621 C 40.8203 -36.0352 43.9941 -32.666 48.8281 -32.666 Z M 48.8281 6.78711 C 71.9727 6.78711 90.8203 -12.0605 90.8203 -35.2051 C 90.8203 -45.9961 86.7188 -55.8594 80.4688 -62.6953 C 73.6816 -70.166 62.5 -61.9629 69.8242 -53.5156 C 74.0723 -48.6328 76.6602 -42.2363 76.6602 -35.2051 C 76.6602 -19.8242 64.209 -7.37305 48.8281 -7.37305 C 33.4473 -7.37305 20.9961 -19.8242 20.9961 -35.2051 C 20.9961 -42.2363 23.584 -48.6328 27.832 -53.5156 C 35.1562 -61.9629 23.9746 -70.166 17.1875 -62.6953 C 10.9375 -55.8594 6.83594 -45.9961 6.83594 -35.2051 C 6.83594 -12.0605 25.6836 6.78711 48.8281 6.78711 Z"/>
  </g>
  <g id="Heavy-S" transform="matrix(1 0 0 1 2588.72 696)">
   <path d="M 47.998 -33.3496 C 52.1484 -33.3496 54.9316 -36.2793 54.9316 -40.7227 L 54.9316 -71.8262 C 54.9316 -76.2695 52.1484 -79.1992 47.998 -79.1992 C 43.7988 -79.1992 41.0156 -76.2695 41.0156 -71.8262 L 41.0156 -40.7227 C 41.0156 -36.2793 43.7988 -33.3496 47.998 -33.3496 Z M 47.998 5.9082 C 70.6055 5.9082 89.1113 -12.5977 89.1113 -35.2051 C 89.1113 -46.1426 84.8145 -56.0547 78.1738 -62.9883 C 72.1191 -69.4336 62.3535 -61.9629 68.8965 -54.6387 C 73.6328 -49.6094 76.5625 -42.7734 76.5625 -35.2051 C 76.5625 -19.4336 63.7695 -6.64062 47.998 -6.64062 C 32.1777 -6.64062 19.4336 -19.4336 19.4336 -35.2051 C 19.4336 -42.7734 22.3145 -49.5605 27.0508 -54.6387 C 33.5938 -61.9629 23.8281 -69.4336 17.8223 -62.9883 C 11.1816 -56.0547 6.83594 -46.1426 6.83594 -35.2051 C 6.83594 -12.5977 25.3418 5.9082 47.998 5.9082 Z"/>
  </g>
  <g id="Bold-S" transform="matrix(1 0 0 1 2292.93 696)">
   <path d="M 47.0215 -34.082 C 50.4883 -34.082 52.7832 -36.5234 52.7832 -40.1855 L 52.7832 -72.2656 C 52.7832 -75.9277 50.4883 -78.3691 47.0215 -78.3691 C 43.5547 -78.3691 41.2598 -75.9277 41.2598 -72.2656 L 41.2598 -40.1855 C 41.2598 -36.5234 43.5547 -34.082 47.0215 -34.082 Z M 47.0215 4.93164 C 69.0918 4.93164 87.2559 -13.1836 87.2559 -35.2051 C 87.2559 -46.2891 82.666 -56.3477 75.5859 -63.2812 C 70.4102 -68.6035 62.1582 -61.9629 67.9199 -55.9082 C 73.1445 -50.6836 76.416 -43.3105 76.416 -35.2051 C 76.416 -18.9453 63.3301 -5.85938 47.0215 -5.85938 C 30.7617 -5.85938 17.627 -18.9453 17.627 -35.2051 C 17.627 -43.3105 20.8984 -50.6348 26.1719 -55.9082 C 31.8848 -61.9629 23.6816 -68.6035 18.5059 -63.2812 C 11.4258 -56.2988 6.83594 -46.2891 6.83594 -35.2051 C 6.83594 -13.1836 25 4.93164 47.0215 4.93164 Z"/>
  </g>
  <g id="Semibold-S" transform="matrix(1 0 0 1 1996.88 696)">
   <path d="M 46.3867 -34.6191 C 49.3652 -34.6191 51.3184 -36.7188 51.3184 -39.8438 L 51.3184 -72.5586 C 51.3184 -75.7324 49.3652 -77.832 46.3867 -77.832 C 43.4082 -77.832 41.4551 -75.7324 41.4551 -72.5586 L 41.4551 -39.8438 C 41.4551 -36.7188 43.4082 -34.6191 46.3867 -34.6191 Z M 46.3867 4.29688 C 68.0176 4.29688 85.9375 -13.5742 85.9375 -35.2539 C 85.9375 -46.3867 81.2012 -56.4941 73.7793 -63.4766 C 69.1895 -68.0176 62.0605 -62.0117 67.1875 -56.7871 C 72.8516 -51.416 76.3184 -43.75 76.3184 -35.2539 C 76.3184 -18.6035 62.9883 -5.27344 46.3867 -5.27344 C 29.7852 -5.27344 16.4062 -18.6035 16.4062 -35.2539 C 16.4062 -43.75 19.9219 -51.3672 25.5859 -56.7871 C 30.7129 -62.0117 23.584 -68.0176 18.9941 -63.4766 C 11.5723 -56.4941 6.83594 -46.3867 6.83594 -35.2539 C 6.83594 -13.5742 24.7559 4.29688 46.3867 4.29688 Z"/>
  </g>
  <g id="Medium-S" transform="matrix(1 0 0 1 1700.66 696)">
   <path d="M 45.8984 -35.0098 C 48.4863 -35.0098 50.1953 -36.8652 50.1953 -39.5996 L 50.1953 -72.8027 C 50.1953 -75.5371 48.4863 -77.3926 45.8984 -77.3926 C 43.2617 -77.3926 41.5527 -75.5371 41.5527 -72.8027 L 41.5527 -39.5996 C 41.5527 -36.8652 43.2617 -35.0098 45.8984 -35.0098 Z M 45.8984 3.75977 C 67.2363 3.75977 84.9609 -13.916 84.9609 -35.2539 C 84.9609 -46.4355 80.0781 -56.6406 72.4121 -63.623 C 68.2617 -67.5781 61.9629 -62.0117 66.6504 -57.4219 C 72.6074 -51.9531 76.2695 -44.043 76.2695 -35.2539 C 76.2695 -18.3594 62.7441 -4.88281 45.8984 -4.88281 C 29.0039 -4.88281 15.5273 -18.3594 15.5273 -35.2539 C 15.5273 -44.043 19.1895 -51.9531 25.0977 -57.4219 C 29.7852 -62.0117 23.4863 -67.5781 19.3359 -63.623 C 11.7188 -56.6406 6.83594 -46.4355 6.83594 -35.2539 C 6.83594 -13.916 24.5605 3.75977 45.8984 3.75977 Z"/>
  </g>
  <g id="Regular-S" transform="matrix(1 0 0 1 1404.61 696)">
   <path d="M 45.2637 -35.5469 C 47.3633 -35.5469 48.7793 -37.0117 48.7793 -39.2578 L 48.7793 -73.0957 C 48.7793 -75.3418 47.3633 -76.8555 45.2637 -76.8555 C 43.1152 -76.8555 41.6992 -75.3418 41.6992 -73.0957 L 41.6992 -39.2578 C 41.6992 -37.0117 43.1152 -35.5469 45.2637 -35.5469 Z M 45.2637 3.125 C 66.1621 3.125 83.6426 -14.3066 83.6426 -35.2539 C 83.6426 -46.5332 78.6133 -56.7871 70.6543 -63.8184 C 67.0898 -67.041 61.8652 -62.0117 65.9668 -58.3008 C 72.2656 -52.6855 76.1719 -44.4336 76.1719 -35.2539 C 76.1719 -18.0664 62.4023 -4.29688 45.2637 -4.29688 C 28.0762 -4.29688 14.3066 -18.0664 14.3066 -35.2539 C 14.3066 -44.4336 18.2129 -52.6367 24.5117 -58.3008 C 28.6133 -62.0117 23.3887 -67.041 19.8242 -63.8184 C 11.8652 -56.7871 6.83594 -46.5332 6.83594 -35.2539 C 6.83594 -14.3066 24.3164 3.125 45.2637 3.125 Z"/>
  </g>
  <g id="Light-S" transform="matrix(1 0 0 1 1108.58 696)">
   <path d="M 44.5312 -35.7422 C 46.1426 -35.7422 47.2656 -36.8652 47.2656 -38.5742 L 47.2656 -73.3398 C 47.2656 -75.0488 46.1426 -76.2207 44.5312 -76.2207 C 42.9199 -76.2207 41.8457 -75.0488 41.8457 -73.3398 L 41.8457 -38.5742 C 41.8457 -36.8652 42.9199 -35.7422 44.5312 -35.7422 Z M 44.5312 2.44141 C 65.1855 2.44141 82.2754 -14.5996 82.2754 -35.2051 C 82.2754 -46.5332 77.1484 -56.7871 69.0918 -63.6719 C 66.3086 -66.1621 62.3047 -62.207 65.4785 -59.4238 C 72.2656 -53.6621 76.5137 -44.9219 76.5137 -35.2051 C 76.5137 -17.5293 62.2559 -3.27148 44.5312 -3.27148 C 26.8555 -3.27148 12.5977 -17.5293 12.5977 -35.2051 C 12.5977 -44.9219 16.8945 -53.6133 23.6328 -59.4238 C 26.8066 -62.207 22.8027 -66.1621 20.0195 -63.6719 C 11.9629 -56.7871 6.83594 -46.5332 6.83594 -35.2051 C 6.83594 -14.5996 23.9258 2.44141 44.5312 2.44141 Z"/>
  </g>
  <g id="Thin-S" transform="matrix(1 0 0 1 812.77 696)">
   <path d="M 43.6523 -35.9863 C 44.5801 -35.9863 45.3125 -36.7188 45.3125 -37.6953 L 45.3125 -73.6816 C 45.3125 -74.6582 44.5801 -75.3906 43.6523 -75.3906 C 42.6758 -75.3906 41.9922 -74.6582 41.9922 -73.6816 L 41.9922 -37.6953 C 41.9922 -36.7188 42.6758 -35.9863 43.6523 -35.9863 Z M 43.6523 1.61133 C 63.8184 1.61133 80.4688 -14.9902 80.4688 -35.2051 C 80.4688 -46.5332 75.2441 -56.7871 67.041 -63.5254 C 65.2344 -65.0391 62.8906 -62.5 64.8438 -60.8887 C 72.2168 -54.9316 76.9531 -45.5566 76.9531 -35.2051 C 76.9531 -16.7969 62.0605 -1.85547 43.6523 -1.85547 C 25.2441 -1.85547 10.3027 -16.7969 10.3027 -35.2051 C 10.3027 -45.5566 15.0879 -54.8828 22.4609 -60.8887 C 24.3652 -62.5 22.0703 -65.0391 20.2637 -63.5254 C 12.0605 -56.7383 6.83594 -46.5332 6.83594 -35.2051 C 6.83594 -14.9902 23.4375 1.61133 43.6523 1.61133 Z"/>
  </g>
  <g id="Ultralight-S" transform="matrix(1 0 0 1 516.547 696)">
   <path d="M 43.1641 -36.084 C 43.7988 -36.084 44.2871 -36.5723 44.2871 -37.207 L 44.2871 -73.8281 C 44.2871 -74.4629 43.7988 -74.9512 43.1641 -74.9512 C 42.5781 -74.9512 42.0898 -74.4629 42.0898 -73.8281 L 42.0898 -37.207 C 42.0898 -36.5723 42.5781 -36.084 43.1641 -36.084 Z M 43.1641 1.17188 C 63.1348 1.17188 79.4922 -15.1855 79.4922 -35.1562 C 79.4922 -46.5332 74.2676 -56.7871 65.9668 -63.3789 C 64.6973 -64.4531 63.2324 -62.6465 64.502 -61.6211 C 72.2168 -55.5664 77.1973 -45.8984 77.1973 -35.1562 C 77.1973 -16.4062 61.9629 -1.12305 43.1641 -1.12305 C 24.4141 -1.12305 9.13086 -16.4062 9.13086 -35.1562 C 9.13086 -45.8984 14.1602 -55.5176 21.875 -61.6211 C 23.1445 -62.6465 21.6797 -64.4531 20.3613 -63.3789 C 12.1582 -56.7383 6.83594 -46.5332 6.83594 -35.1562 C 6.83594 -15.1855 23.1934 1.17188 43.1641 1.17188 Z"/>
  </g>
 </g>
</svg>
